<mxfile host="app.diagrams.net" modified="2024-01-09T04:56:48.878Z" agent="Mozilla/5.0 (Windows NT 10.0; Win64; x64) AppleWebKit/537.36 (KHTML, like Gecko) Chrome/120.0.0.0 Safari/537.36 Edg/120.0.0.0" etag="2D_0eYkTWFJwQ4zBtjmO" version="22.1.16" type="github">
  <diagram name="ページ1" id="ntLUQj3zXpR2GrfyCho_">
    <mxGraphModel dx="1489" dy="824" grid="1" gridSize="10" guides="1" tooltips="1" connect="1" arrows="1" fold="1" page="1" pageScale="1" pageWidth="827" pageHeight="1169" math="0" shadow="0">
      <root>
        <mxCell id="0" />
        <mxCell id="1" parent="0" />
        <mxCell id="PO0unFIX-wsbpKIqG6Li-25" value="" style="rounded=0;whiteSpace=wrap;html=1;" parent="1" vertex="1">
          <mxGeometry x="50" y="430" width="740" height="683" as="geometry" />
        </mxCell>
        <mxCell id="PO0unFIX-wsbpKIqG6Li-35" value="" style="rounded=0;whiteSpace=wrap;html=1;labelBackgroundColor=#CCE5FF;noLabel=1;fillColor=#d5e8d4;strokeColor=none;" parent="1" vertex="1">
          <mxGeometry x="592" y="852.5" width="170" height="40" as="geometry" />
        </mxCell>
        <mxCell id="PO0unFIX-wsbpKIqG6Li-46" value="EC2インスタンス" style="text;html=1;strokeColor=none;fillColor=none;align=center;verticalAlign=middle;whiteSpace=wrap;rounded=0;fontStyle=1;fontColor=#000000;fontSize=16;" parent="1" vertex="1">
          <mxGeometry x="51.110000000000014" y="387" width="134.45" height="30" as="geometry" />
        </mxCell>
        <mxCell id="PO0unFIX-wsbpKIqG6Li-61" value="" style="group" parent="1" vertex="1" connectable="0">
          <mxGeometry x="592" y="578.5" width="170" height="430" as="geometry" />
        </mxCell>
        <mxCell id="PO0unFIX-wsbpKIqG6Li-62" value="" style="rounded=0;whiteSpace=wrap;html=1;labelBackgroundColor=#CCE5FF;noLabel=1;fillColor=#bac8d3;strokeColor=none;" parent="PO0unFIX-wsbpKIqG6Li-61" vertex="1">
          <mxGeometry y="414" width="170" height="16" as="geometry" />
        </mxCell>
        <mxCell id="PO0unFIX-wsbpKIqG6Li-63" value="" style="rounded=0;whiteSpace=wrap;html=1;labelBackgroundColor=#CCE5FF;noLabel=1;fillColor=#fff2cc;strokeColor=none;" parent="PO0unFIX-wsbpKIqG6Li-61" vertex="1">
          <mxGeometry width="170" height="274" as="geometry" />
        </mxCell>
        <mxCell id="PO0unFIX-wsbpKIqG6Li-64" value="" style="rounded=0;whiteSpace=wrap;html=1;labelBackgroundColor=#CCE5FF;noLabel=1;fillColor=#dae8fc;strokeColor=none;" parent="PO0unFIX-wsbpKIqG6Li-61" vertex="1">
          <mxGeometry y="388" width="170" height="27" as="geometry" />
        </mxCell>
        <mxCell id="PO0unFIX-wsbpKIqG6Li-65" value="" style="rounded=0;whiteSpace=wrap;html=1;labelBackgroundColor=#CCE5FF;noLabel=1;fillColor=#e1d5e7;strokeColor=none;" parent="PO0unFIX-wsbpKIqG6Li-61" vertex="1">
          <mxGeometry y="314" width="170" height="60" as="geometry" />
        </mxCell>
        <mxCell id="PO0unFIX-wsbpKIqG6Li-68" value="port:22(SSH)" style="text;html=1;strokeColor=none;fillColor=none;align=left;verticalAlign=middle;whiteSpace=wrap;rounded=0;fontSize=14;fontStyle=1" parent="1" vertex="1">
          <mxGeometry x="594.98" y="387" width="104" height="30" as="geometry" />
        </mxCell>
        <mxCell id="PO0unFIX-wsbpKIqG6Li-50" value="port:80(HTTP)" style="text;html=1;strokeColor=none;fillColor=none;align=left;verticalAlign=middle;whiteSpace=wrap;rounded=0;fontSize=14;fontStyle=1" parent="1" vertex="1">
          <mxGeometry x="255" y="387" width="113" height="30" as="geometry" />
        </mxCell>
        <mxCell id="PO0unFIX-wsbpKIqG6Li-36" value="" style="rounded=0;whiteSpace=wrap;html=1;labelBackgroundColor=#CCE5FF;noLabel=1;fillColor=#f8cecc;strokeColor=none;" parent="1" vertex="1">
          <mxGeometry x="592" y="662.5" width="146" height="75" as="geometry" />
        </mxCell>
        <mxCell id="PO0unFIX-wsbpKIqG6Li-66" value="&lt;div&gt;/containers&lt;/div&gt;&lt;div&gt;&amp;nbsp;├/django&lt;/div&gt;&amp;nbsp;│├/djangoapp&lt;br&gt;&amp;nbsp;││├/db.sqllit3&lt;br&gt;&amp;nbsp;││├/djangoapp&lt;br style=&quot;border-color: var(--border-color);&quot;&gt;&amp;nbsp;│││├settins.py&lt;br style=&quot;border-color: var(--border-color);&quot;&gt;&amp;nbsp;│││├urls.py&lt;br style=&quot;border-color: var(--border-color);&quot;&gt;&amp;nbsp;│││└wsgi.py&lt;br&gt;&amp;nbsp;││├/static&lt;br&gt;&amp;nbsp;│││└/admin&lt;br style=&quot;border-color: var(--border-color);&quot;&gt;&amp;nbsp;│││&amp;nbsp; ├/css&lt;br style=&quot;border-color: var(--border-color);&quot;&gt;&amp;nbsp;│││&amp;nbsp; ├/img&lt;br style=&quot;border-color: var(--border-color);&quot;&gt;&amp;nbsp;│││&amp;nbsp; └/js&lt;br&gt;&amp;nbsp;││└/todoapp&lt;br&gt;&amp;nbsp;││ ├admin.py&lt;br&gt;&amp;nbsp;││ ├apps.py&lt;br&gt;&amp;nbsp;││ ├/migrations&lt;br&gt;&amp;nbsp;││ ├models.py&lt;br&gt;&amp;nbsp;││ ├tests.py&lt;br style=&quot;border-color: var(--border-color);&quot;&gt;&amp;nbsp;││ ├urls.py&lt;br style=&quot;border-color: var(--border-color);&quot;&gt;&amp;nbsp;││ └views.py&lt;br&gt;&lt;div&gt;&amp;nbsp;│├/startup&lt;/div&gt;&lt;div&gt;&amp;nbsp;││├setuser.sh&lt;/div&gt;&lt;div&gt;&amp;nbsp;││└startup.sh&lt;/div&gt;&lt;div&gt;&amp;nbsp;│├/uwsgi&lt;/div&gt;&lt;div&gt;&amp;nbsp;││└wusgi.ini&lt;/div&gt;&lt;div&gt;&amp;nbsp;│├Dockerfile&lt;/div&gt;&lt;div&gt;&amp;nbsp;│└requirements.txt&lt;/div&gt;&lt;div&gt;&amp;nbsp;├/nginx&lt;/div&gt;&lt;div&gt;&amp;nbsp;│├/conf&lt;/div&gt;&lt;div&gt;&amp;nbsp;││└nginx.conf&lt;/div&gt;&lt;div&gt;&lt;span style=&quot;background-color: initial;&quot;&gt;&amp;nbsp;│└uwsgi_params&lt;/span&gt;&lt;/div&gt;&lt;div&gt;&amp;nbsp;└docker-compose.yml&lt;/div&gt;" style="text;html=1;strokeColor=none;fillColor=none;align=left;verticalAlign=top;whiteSpace=wrap;rounded=0;fontFamily=Lucida Console;" parent="1" vertex="1">
          <mxGeometry x="568" y="542.5" width="200" height="491" as="geometry" />
        </mxCell>
        <mxCell id="FsDxIWnZCm4KXBWtry0k-14" value="AWS VPC" style="rounded=1;whiteSpace=wrap;html=1;fillColor=#000000;fontColor=#FFFFFF;fontSize=19;" vertex="1" parent="1">
          <mxGeometry x="51.11" y="330" width="738.89" height="50" as="geometry" />
        </mxCell>
        <mxCell id="FsDxIWnZCm4KXBWtry0k-20" value="" style="rounded=0;whiteSpace=wrap;html=1;" vertex="1" parent="1">
          <mxGeometry x="73.66" y="473" width="374.34" height="620" as="geometry" />
        </mxCell>
        <mxCell id="FsDxIWnZCm4KXBWtry0k-21" value="&amp;nbsp; Docker" style="text;html=1;strokeColor=none;fillColor=#000000;align=left;verticalAlign=middle;whiteSpace=wrap;rounded=0;fontSize=12;fontStyle=0;fontColor=#FFFFFF;" vertex="1" parent="1">
          <mxGeometry x="73.66" y="473" width="374.34" height="20" as="geometry" />
        </mxCell>
        <mxCell id="FsDxIWnZCm4KXBWtry0k-1" value="" style="rounded=0;whiteSpace=wrap;html=1;strokeColor=#FF8000;" vertex="1" parent="1">
          <mxGeometry x="88" y="523" width="340" height="151.5" as="geometry" />
        </mxCell>
        <mxCell id="FsDxIWnZCm4KXBWtry0k-2" value="&amp;nbsp; 仮想コンテナ(nginx)" style="text;html=1;strokeColor=none;fillColor=#FF8000;align=left;verticalAlign=middle;whiteSpace=wrap;rounded=0;fontSize=12;fontStyle=0;fontColor=#FFFFFF;" vertex="1" parent="1">
          <mxGeometry x="88" y="523" width="340" height="20" as="geometry" />
        </mxCell>
        <mxCell id="FsDxIWnZCm4KXBWtry0k-4" value="" style="rounded=0;whiteSpace=wrap;html=1;strokeColor=#FF8000;" vertex="1" parent="1">
          <mxGeometry x="88" y="714.5" width="340" height="180" as="geometry" />
        </mxCell>
        <mxCell id="FsDxIWnZCm4KXBWtry0k-7" value="" style="rounded=0;whiteSpace=wrap;html=1;strokeColor=#FF8000;" vertex="1" parent="1">
          <mxGeometry x="88" y="935.5" width="340" height="140" as="geometry" />
        </mxCell>
        <mxCell id="PO0unFIX-wsbpKIqG6Li-32" value="" style="rounded=0;whiteSpace=wrap;html=1;labelBackgroundColor=#CCE5FF;noLabel=1;fillColor=#f8cecc;strokeColor=none;" parent="1" vertex="1">
          <mxGeometry x="236.92000000000002" y="607.25" width="170" height="14" as="geometry" />
        </mxCell>
        <mxCell id="PO0unFIX-wsbpKIqG6Li-33" value="" style="rounded=0;whiteSpace=wrap;html=1;labelBackgroundColor=#CCE5FF;noLabel=1;fillColor=#dae8fc;strokeColor=none;" parent="1" vertex="1">
          <mxGeometry x="236.92000000000002" y="576.25" width="170" height="15" as="geometry" />
        </mxCell>
        <mxCell id="PO0unFIX-wsbpKIqG6Li-34" value="" style="rounded=0;whiteSpace=wrap;html=1;labelBackgroundColor=#CCE5FF;noLabel=1;fillColor=#bac8d3;strokeColor=none;" parent="1" vertex="1">
          <mxGeometry x="236.92000000000002" y="591.25" width="170" height="16" as="geometry" />
        </mxCell>
        <mxCell id="PO0unFIX-wsbpKIqG6Li-47" value="" style="endArrow=classic;startArrow=classic;html=1;rounded=0;entryX=0.25;entryY=1;entryDx=0;entryDy=0;exitX=0.25;exitY=0;exitDx=0;exitDy=0;strokeWidth=3;" parent="1" edge="1">
          <mxGeometry width="50" height="50" relative="1" as="geometry">
            <mxPoint x="173" y="713.5" as="sourcePoint" />
            <mxPoint x="173" y="673.5" as="targetPoint" />
          </mxGeometry>
        </mxCell>
        <mxCell id="PO0unFIX-wsbpKIqG6Li-51" value="port:8000(NGINX⇔uWSGI)" style="text;html=1;strokeColor=none;fillColor=none;align=left;verticalAlign=middle;whiteSpace=wrap;rounded=0;fontSize=14;fontStyle=1" parent="1" vertex="1">
          <mxGeometry x="185" y="678.5" width="193" height="30" as="geometry" />
        </mxCell>
        <mxCell id="PO0unFIX-wsbpKIqG6Li-53" value="&lt;div&gt;&lt;span style=&quot;background-color: initial;&quot;&gt;/etc/nginx/conf.d&lt;/span&gt;&lt;br&gt;&lt;/div&gt;&lt;div&gt;/etc/nginx/uwsgi_params&lt;/div&gt;&lt;div&gt;/static&lt;/div&gt;" style="text;html=1;strokeColor=none;fillColor=none;align=left;verticalAlign=top;whiteSpace=wrap;rounded=0;fontFamily=Lucida Console;" parent="1" vertex="1">
          <mxGeometry x="236.92000000000002" y="571.25" width="160" height="55" as="geometry" />
        </mxCell>
        <mxCell id="FsDxIWnZCm4KXBWtry0k-8" value="&amp;nbsp; 仮想コンテナ(Postgresql)" style="text;html=1;strokeColor=none;fillColor=#FF8000;align=left;verticalAlign=middle;whiteSpace=wrap;rounded=0;fontSize=12;fontStyle=0;fontColor=#FFFFFF;" vertex="1" parent="1">
          <mxGeometry x="88" y="935.5" width="340" height="20" as="geometry" />
        </mxCell>
        <mxCell id="FsDxIWnZCm4KXBWtry0k-5" value="&amp;nbsp; 仮想コンテナ(django)" style="text;html=1;strokeColor=none;fillColor=#FF8000;align=left;verticalAlign=middle;whiteSpace=wrap;rounded=0;fontSize=12;fontStyle=0;fontColor=#FFFFFF;" vertex="1" parent="1">
          <mxGeometry x="88" y="714.5" width="340" height="20" as="geometry" />
        </mxCell>
        <mxCell id="PO0unFIX-wsbpKIqG6Li-48" value="" style="endArrow=classic;startArrow=classic;html=1;rounded=0;entryX=0.25;entryY=1;entryDx=0;entryDy=0;exitX=0.25;exitY=0;exitDx=0;exitDy=0;strokeWidth=3;" parent="1" edge="1">
          <mxGeometry width="50" height="50" relative="1" as="geometry">
            <mxPoint x="173" y="934.5" as="sourcePoint" />
            <mxPoint x="173" y="894.5" as="targetPoint" />
          </mxGeometry>
        </mxCell>
        <mxCell id="PO0unFIX-wsbpKIqG6Li-52" value="port:5432(Django⇔PostgreSQL)" style="text;html=1;strokeColor=none;fillColor=none;align=left;verticalAlign=middle;whiteSpace=wrap;rounded=0;fontSize=14;fontStyle=1" parent="1" vertex="1">
          <mxGeometry x="185" y="900.5" width="233" height="30" as="geometry" />
        </mxCell>
        <mxCell id="PO0unFIX-wsbpKIqG6Li-27" value="" style="group" parent="1" vertex="1" connectable="0">
          <mxGeometry x="243.66" y="770.5" width="170" height="115" as="geometry" />
        </mxCell>
        <mxCell id="PO0unFIX-wsbpKIqG6Li-28" value="" style="rounded=0;whiteSpace=wrap;html=1;labelBackgroundColor=#CCE5FF;noLabel=1;fillColor=#d5e8d4;strokeColor=none;" parent="PO0unFIX-wsbpKIqG6Li-27" vertex="1">
          <mxGeometry x="1.0914093549372954" y="86" width="168.90859064506265" height="15" as="geometry" />
        </mxCell>
        <mxCell id="PO0unFIX-wsbpKIqG6Li-29" value="" style="rounded=0;whiteSpace=wrap;html=1;labelBackgroundColor=#CCE5FF;noLabel=1;fillColor=#e1d5e7;strokeColor=none;" parent="PO0unFIX-wsbpKIqG6Li-27" vertex="1">
          <mxGeometry x="1.0914093549372954" y="101" width="168.90859064506265" height="14" as="geometry" />
        </mxCell>
        <mxCell id="PO0unFIX-wsbpKIqG6Li-30" value="" style="rounded=0;whiteSpace=wrap;html=1;labelBackgroundColor=#CCE5FF;noLabel=1;fillColor=#fff2cc;strokeColor=none;" parent="PO0unFIX-wsbpKIqG6Li-27" vertex="1">
          <mxGeometry width="169.99999999999997" height="86" as="geometry" />
        </mxCell>
        <mxCell id="PO0unFIX-wsbpKIqG6Li-31" value="" style="rounded=0;whiteSpace=wrap;html=1;labelBackgroundColor=#CCE5FF;noLabel=1;fillColor=#f8cecc;strokeColor=none;" parent="1" vertex="1">
          <mxGeometry x="243.66" y="828.5" width="170" height="14" as="geometry" />
        </mxCell>
        <mxCell id="PO0unFIX-wsbpKIqG6Li-54" value="&lt;div&gt;&lt;span style=&quot;background-color: initial;&quot;&gt;/app&lt;/span&gt;&lt;br&gt;&lt;/div&gt;├/djangoapp&lt;br&gt;│├/db.sqllit3&lt;br&gt;│├/djangoapp&lt;br style=&quot;border-color: var(--border-color);&quot;&gt;│├/static&lt;br&gt;│└/todoapp&lt;br&gt;&lt;span style=&quot;background-color: initial;&quot;&gt;├/startup&lt;/span&gt;&lt;br&gt;└&lt;span style=&quot;background-color: initial;&quot;&gt;/wsgi&lt;/span&gt;&lt;br&gt;&lt;div&gt;&lt;br&gt;&lt;/div&gt;" style="text;html=1;strokeColor=none;fillColor=none;align=left;verticalAlign=top;whiteSpace=wrap;rounded=0;fontFamily=Lucida Console;" parent="1" vertex="1">
          <mxGeometry x="244.49999999999997" y="764.5" width="130" height="140" as="geometry" />
        </mxCell>
        <mxCell id="PO0unFIX-wsbpKIqG6Li-39" value="NGINX" style="rounded=1;whiteSpace=wrap;html=1;fillColor=#FF8000;fontColor=#FFFFFF;strokeColor=none;" parent="1" vertex="1">
          <mxGeometry x="96.08000000000006" y="575.25" width="128.98359049718349" height="30" as="geometry" />
        </mxCell>
        <mxCell id="PO0unFIX-wsbpKIqG6Li-42" value="PostgreSQL" style="rounded=1;whiteSpace=wrap;html=1;fillColor=#FF8000;fontColor=#FFFFFF;strokeColor=none;" parent="1" vertex="1">
          <mxGeometry x="100.67640950281651" y="990.5" width="128.98359049718349" height="30" as="geometry" />
        </mxCell>
        <mxCell id="PO0unFIX-wsbpKIqG6Li-38" value="Django" style="rounded=1;whiteSpace=wrap;html=1;fontColor=#FFFFFF;strokeColor=none;fillColor=#FF8000;" parent="1" vertex="1">
          <mxGeometry x="102.33640950281651" y="771.5" width="128.98359049718349" height="30" as="geometry" />
        </mxCell>
        <mxCell id="PO0unFIX-wsbpKIqG6Li-40" value="uWSGI" style="rounded=1;whiteSpace=wrap;html=1;fillColor=#FF8000;fontColor=#FFFFFF;strokeColor=none;" parent="1" vertex="1">
          <mxGeometry x="102.33640950281651" y="813.5" width="128.98359049718349" height="30" as="geometry" />
        </mxCell>
        <mxCell id="PO0unFIX-wsbpKIqG6Li-41" value="python" style="rounded=1;whiteSpace=wrap;html=1;fillColor=#FF8000;fontColor=#FFFFFF;strokeColor=none;" parent="1" vertex="1">
          <mxGeometry x="102.33640950281651" y="853.5" width="128.98359049718349" height="30" as="geometry" />
        </mxCell>
        <mxCell id="FsDxIWnZCm4KXBWtry0k-11" value="WEBサーバとして動作します。" style="text;html=1;strokeColor=none;fillColor=none;align=left;verticalAlign=top;whiteSpace=wrap;rounded=0;" vertex="1" parent="1">
          <mxGeometry x="96.07999999999998" y="543" width="250" height="30" as="geometry" />
        </mxCell>
        <mxCell id="FsDxIWnZCm4KXBWtry0k-12" value="APサーバとして動作します。" style="text;html=1;strokeColor=none;fillColor=none;align=left;verticalAlign=top;whiteSpace=wrap;rounded=0;" vertex="1" parent="1">
          <mxGeometry x="96.07999999999998" y="734.5" width="250" height="30" as="geometry" />
        </mxCell>
        <mxCell id="FsDxIWnZCm4KXBWtry0k-13" value="DBサーバとして動作します。" style="text;html=1;strokeColor=none;fillColor=none;align=left;verticalAlign=top;whiteSpace=wrap;rounded=0;" vertex="1" parent="1">
          <mxGeometry x="96.07999999999998" y="954.5" width="250" height="30" as="geometry" />
        </mxCell>
        <mxCell id="PO0unFIX-wsbpKIqG6Li-57" value="" style="curved=1;endArrow=classic;html=1;rounded=0;entryX=1;entryY=0.5;entryDx=0;entryDy=0;strokeColor=#DBB8B6;strokeWidth=4;startArrow=classic;startFill=1;" parent="1" edge="1">
          <mxGeometry width="50" height="50" relative="1" as="geometry">
            <mxPoint x="588" y="673.5" as="sourcePoint" />
            <mxPoint x="408.8399999999999" y="617.5" as="targetPoint" />
            <Array as="points">
              <mxPoint x="498" y="673.5" />
              <mxPoint x="478" y="654.5" />
              <mxPoint x="478" y="617.5" />
            </Array>
          </mxGeometry>
        </mxCell>
        <mxCell id="PO0unFIX-wsbpKIqG6Li-58" value="" style="curved=1;endArrow=classic;html=1;rounded=0;entryX=1;entryY=0.5;entryDx=0;entryDy=0;strokeColor=#dab8b7;strokeWidth=4;" parent="1" edge="1">
          <mxGeometry width="50" height="50" relative="1" as="geometry">
            <mxPoint x="574" y="674.5" as="sourcePoint" />
            <mxPoint x="412" y="832.5" as="targetPoint" />
            <Array as="points">
              <mxPoint x="478" y="674.5" />
              <mxPoint x="478" y="734.5" />
              <mxPoint x="478" y="834.5" />
            </Array>
          </mxGeometry>
        </mxCell>
        <mxCell id="PO0unFIX-wsbpKIqG6Li-59" value="" style="curved=1;endArrow=classic;html=1;rounded=0;strokeColor=#C3D4C2;strokeWidth=4;startArrow=classic;startFill=1;" parent="1" edge="1">
          <mxGeometry width="50" height="50" relative="1" as="geometry">
            <mxPoint x="588" y="861.5" as="sourcePoint" />
            <mxPoint x="414" y="863.5" as="targetPoint" />
          </mxGeometry>
        </mxCell>
        <mxCell id="PO0unFIX-wsbpKIqG6Li-60" value="" style="curved=1;endArrow=classic;html=1;rounded=0;strokeColor=#CABFCF;strokeWidth=3;startArrow=classic;startFill=1;endFill=1;" parent="1" edge="1">
          <mxGeometry width="50" height="50" relative="1" as="geometry">
            <mxPoint x="587" y="905.5" as="sourcePoint" />
            <mxPoint x="417" y="878.5" as="targetPoint" />
            <Array as="points">
              <mxPoint x="508" y="904.5" />
              <mxPoint x="468" y="878.5" />
            </Array>
          </mxGeometry>
        </mxCell>
        <mxCell id="FsDxIWnZCm4KXBWtry0k-28" value="&amp;nbsp; SSH" style="text;html=1;strokeColor=none;fillColor=#000000;align=left;verticalAlign=middle;whiteSpace=wrap;rounded=0;fontSize=12;fontStyle=0;fontColor=#FFFFFF;" vertex="1" parent="1">
          <mxGeometry x="558" y="473" width="200" height="20" as="geometry" />
        </mxCell>
        <mxCell id="PO0unFIX-wsbpKIqG6Li-55" value="" style="curved=1;endArrow=classic;html=1;rounded=0;exitX=0;exitY=0.5;exitDx=0;exitDy=0;entryX=1;entryY=0.5;entryDx=0;entryDy=0;strokeColor=#A5B1BA;strokeWidth=4;startArrow=classic;startFill=1;" parent="1" source="PO0unFIX-wsbpKIqG6Li-62" edge="1">
          <mxGeometry width="50" height="50" relative="1" as="geometry">
            <mxPoint x="502" y="996.5" as="sourcePoint" />
            <mxPoint x="408.8399999999999" y="602.5" as="targetPoint" />
            <Array as="points">
              <mxPoint x="508" y="1000.5" />
              <mxPoint x="498" y="774.5" />
              <mxPoint x="518" y="594.5" />
            </Array>
          </mxGeometry>
        </mxCell>
        <mxCell id="PO0unFIX-wsbpKIqG6Li-56" value="" style="curved=1;endArrow=classic;html=1;rounded=0;entryX=1;entryY=0.25;entryDx=0;entryDy=0;strokeColor=#BECBDB;strokeWidth=4;startArrow=classic;startFill=1;" parent="1" edge="1">
          <mxGeometry width="50" height="50" relative="1" as="geometry">
            <mxPoint x="587" y="971.5" as="sourcePoint" />
            <mxPoint x="408.8399999999999" y="583.25" as="targetPoint" />
            <Array as="points">
              <mxPoint x="528" y="974.5" />
              <mxPoint x="518" y="774.5" />
              <mxPoint x="538" y="574.5" />
            </Array>
          </mxGeometry>
        </mxCell>
        <mxCell id="FsDxIWnZCm4KXBWtry0k-29" value="" style="curved=1;endArrow=classic;html=1;rounded=0;strokeColor=#E0D5B4;strokeWidth=4;startArrow=classic;startFill=1;" edge="1" parent="1">
          <mxGeometry width="50" height="50" relative="1" as="geometry">
            <mxPoint x="588" y="584.5" as="sourcePoint" />
            <mxPoint x="416" y="781.5" as="targetPoint" />
            <Array as="points">
              <mxPoint x="548" y="584.5" />
              <mxPoint x="548" y="674.5" />
              <mxPoint x="548" y="794.5" />
            </Array>
          </mxGeometry>
        </mxCell>
        <mxCell id="FsDxIWnZCm4KXBWtry0k-30" value="Text" style="text;html=1;strokeColor=none;fillColor=none;align=center;verticalAlign=middle;whiteSpace=wrap;rounded=0;" vertex="1" parent="1">
          <mxGeometry x="328" y="704.5" width="60" height="30" as="geometry" />
        </mxCell>
        <mxCell id="FsDxIWnZCm4KXBWtry0k-31" value="&amp;nbsp; EC2インスタンス" style="text;html=1;strokeColor=default;fillColor=#000000;align=center;verticalAlign=middle;whiteSpace=wrap;rounded=0;fontSize=17;fontStyle=0;fontColor=#FFFFFF;" vertex="1" parent="1">
          <mxGeometry x="50" y="420" width="740" height="30" as="geometry" />
        </mxCell>
        <mxCell id="PO0unFIX-wsbpKIqG6Li-49" value="" style="endArrow=classic;startArrow=classic;html=1;rounded=0;strokeWidth=3;strokeColor=#FF0000;" parent="1" edge="1">
          <mxGeometry width="50" height="50" relative="1" as="geometry">
            <mxPoint x="245" y="523" as="sourcePoint" />
            <mxPoint x="246.5" y="380" as="targetPoint" />
          </mxGeometry>
        </mxCell>
        <mxCell id="PO0unFIX-wsbpKIqG6Li-67" value="" style="endArrow=classic;startArrow=classic;html=1;rounded=0;strokeWidth=3;strokeColor=#FF0000;" parent="1" edge="1">
          <mxGeometry width="50" height="50" relative="1" as="geometry">
            <mxPoint x="586" y="470" as="sourcePoint" />
            <mxPoint x="586" y="380" as="targetPoint" />
          </mxGeometry>
        </mxCell>
      </root>
    </mxGraphModel>
  </diagram>
</mxfile>
